%TF.GenerationSoftware,KiCad,Pcbnew,10.0.5*%
%TF.CreationDate,2026-09-22T21:29:22+05:30*%
%TF.ProjectId,LED CIRCUIT,4c454420-4349-4524-9355-49542e6b6963,rev?*%
%TF.SameCoordinates,Original*%
%TF.FileFunction,Legend,Top*%
%TF.FilePolarity,Positive*%
%FSLAX46Y46*%
G04 Gerber Fmt 4.6, Leading zero omitted, Abs format (unit mm)*
G04 Created by KiCad (PCBNEW 10.0.5) date 2026-09-22 21:29:22*
%MOMM*%
%LPD*%
G01*
G04 APERTURE LIST*
%ADD10C,0.150000*%
%ADD11C,0.120000*%
G04 APERTURE END LIST*
D10*
X146534819Y-109166666D02*
X146058628Y-109499999D01*
X146534819Y-109738094D02*
X145534819Y-109738094D01*
X145534819Y-109738094D02*
X145534819Y-109357142D01*
X145534819Y-109357142D02*
X145582438Y-109261904D01*
X145582438Y-109261904D02*
X145630057Y-109214285D01*
X145630057Y-109214285D02*
X145725295Y-109166666D01*
X145725295Y-109166666D02*
X145868152Y-109166666D01*
X145868152Y-109166666D02*
X145963390Y-109214285D01*
X145963390Y-109214285D02*
X146011009Y-109261904D01*
X146011009Y-109261904D02*
X146058628Y-109357142D01*
X146058628Y-109357142D02*
X146058628Y-109738094D01*
X145534819Y-108833332D02*
X145534819Y-108214285D01*
X145534819Y-108214285D02*
X145915771Y-108547618D01*
X145915771Y-108547618D02*
X145915771Y-108404761D01*
X145915771Y-108404761D02*
X145963390Y-108309523D01*
X145963390Y-108309523D02*
X146011009Y-108261904D01*
X146011009Y-108261904D02*
X146106247Y-108214285D01*
X146106247Y-108214285D02*
X146344342Y-108214285D01*
X146344342Y-108214285D02*
X146439580Y-108261904D01*
X146439580Y-108261904D02*
X146487200Y-108309523D01*
X146487200Y-108309523D02*
X146534819Y-108404761D01*
X146534819Y-108404761D02*
X146534819Y-108690475D01*
X146534819Y-108690475D02*
X146487200Y-108785713D01*
X146487200Y-108785713D02*
X146439580Y-108833332D01*
X151454819Y-104166666D02*
X150978628Y-104499999D01*
X151454819Y-104738094D02*
X150454819Y-104738094D01*
X150454819Y-104738094D02*
X150454819Y-104357142D01*
X150454819Y-104357142D02*
X150502438Y-104261904D01*
X150502438Y-104261904D02*
X150550057Y-104214285D01*
X150550057Y-104214285D02*
X150645295Y-104166666D01*
X150645295Y-104166666D02*
X150788152Y-104166666D01*
X150788152Y-104166666D02*
X150883390Y-104214285D01*
X150883390Y-104214285D02*
X150931009Y-104261904D01*
X150931009Y-104261904D02*
X150978628Y-104357142D01*
X150978628Y-104357142D02*
X150978628Y-104738094D01*
X150550057Y-103785713D02*
X150502438Y-103738094D01*
X150502438Y-103738094D02*
X150454819Y-103642856D01*
X150454819Y-103642856D02*
X150454819Y-103404761D01*
X150454819Y-103404761D02*
X150502438Y-103309523D01*
X150502438Y-103309523D02*
X150550057Y-103261904D01*
X150550057Y-103261904D02*
X150645295Y-103214285D01*
X150645295Y-103214285D02*
X150740533Y-103214285D01*
X150740533Y-103214285D02*
X150883390Y-103261904D01*
X150883390Y-103261904D02*
X151454819Y-103833332D01*
X151454819Y-103833332D02*
X151454819Y-103214285D01*
X156454819Y-109166666D02*
X155978628Y-109499999D01*
X156454819Y-109738094D02*
X155454819Y-109738094D01*
X155454819Y-109738094D02*
X155454819Y-109357142D01*
X155454819Y-109357142D02*
X155502438Y-109261904D01*
X155502438Y-109261904D02*
X155550057Y-109214285D01*
X155550057Y-109214285D02*
X155645295Y-109166666D01*
X155645295Y-109166666D02*
X155788152Y-109166666D01*
X155788152Y-109166666D02*
X155883390Y-109214285D01*
X155883390Y-109214285D02*
X155931009Y-109261904D01*
X155931009Y-109261904D02*
X155978628Y-109357142D01*
X155978628Y-109357142D02*
X155978628Y-109738094D01*
X156454819Y-108214285D02*
X156454819Y-108785713D01*
X156454819Y-108499999D02*
X155454819Y-108499999D01*
X155454819Y-108499999D02*
X155597676Y-108595237D01*
X155597676Y-108595237D02*
X155692914Y-108690475D01*
X155692914Y-108690475D02*
X155740533Y-108785713D01*
X159454819Y-117333333D02*
X160169104Y-117333333D01*
X160169104Y-117333333D02*
X160311961Y-117380952D01*
X160311961Y-117380952D02*
X160407200Y-117476190D01*
X160407200Y-117476190D02*
X160454819Y-117619047D01*
X160454819Y-117619047D02*
X160454819Y-117714285D01*
X160454819Y-116333333D02*
X160454819Y-116904761D01*
X160454819Y-116619047D02*
X159454819Y-116619047D01*
X159454819Y-116619047D02*
X159597676Y-116714285D01*
X159597676Y-116714285D02*
X159692914Y-116809523D01*
X159692914Y-116809523D02*
X159740533Y-116904761D01*
X160238095Y-106604819D02*
X160238095Y-105604819D01*
X160238095Y-106081009D02*
X160809523Y-106081009D01*
X160809523Y-106604819D02*
X160809523Y-105604819D01*
X161714285Y-105938152D02*
X161714285Y-106604819D01*
X161476190Y-105557200D02*
X161238095Y-106271485D01*
X161238095Y-106271485D02*
X161857142Y-106271485D01*
X160238095Y-82454819D02*
X160238095Y-81454819D01*
X160238095Y-81931009D02*
X160809523Y-81931009D01*
X160809523Y-82454819D02*
X160809523Y-81454819D01*
X161190476Y-81454819D02*
X161809523Y-81454819D01*
X161809523Y-81454819D02*
X161476190Y-81835771D01*
X161476190Y-81835771D02*
X161619047Y-81835771D01*
X161619047Y-81835771D02*
X161714285Y-81883390D01*
X161714285Y-81883390D02*
X161761904Y-81931009D01*
X161761904Y-81931009D02*
X161809523Y-82026247D01*
X161809523Y-82026247D02*
X161809523Y-82264342D01*
X161809523Y-82264342D02*
X161761904Y-82359580D01*
X161761904Y-82359580D02*
X161714285Y-82407200D01*
X161714285Y-82407200D02*
X161619047Y-82454819D01*
X161619047Y-82454819D02*
X161333333Y-82454819D01*
X161333333Y-82454819D02*
X161238095Y-82407200D01*
X161238095Y-82407200D02*
X161190476Y-82359580D01*
X141238095Y-106604819D02*
X141238095Y-105604819D01*
X141238095Y-106081009D02*
X141809523Y-106081009D01*
X141809523Y-106604819D02*
X141809523Y-105604819D01*
X142238095Y-105700057D02*
X142285714Y-105652438D01*
X142285714Y-105652438D02*
X142380952Y-105604819D01*
X142380952Y-105604819D02*
X142619047Y-105604819D01*
X142619047Y-105604819D02*
X142714285Y-105652438D01*
X142714285Y-105652438D02*
X142761904Y-105700057D01*
X142761904Y-105700057D02*
X142809523Y-105795295D01*
X142809523Y-105795295D02*
X142809523Y-105890533D01*
X142809523Y-105890533D02*
X142761904Y-106033390D01*
X142761904Y-106033390D02*
X142190476Y-106604819D01*
X142190476Y-106604819D02*
X142809523Y-106604819D01*
X142238095Y-82604819D02*
X142238095Y-81604819D01*
X142238095Y-82081009D02*
X142809523Y-82081009D01*
X142809523Y-82604819D02*
X142809523Y-81604819D01*
X143809523Y-82604819D02*
X143238095Y-82604819D01*
X143523809Y-82604819D02*
X143523809Y-81604819D01*
X143523809Y-81604819D02*
X143428571Y-81747676D01*
X143428571Y-81747676D02*
X143333333Y-81842914D01*
X143333333Y-81842914D02*
X143238095Y-81890533D01*
X150261905Y-97454819D02*
X150261905Y-96454819D01*
X150261905Y-96454819D02*
X150500000Y-96454819D01*
X150500000Y-96454819D02*
X150642857Y-96502438D01*
X150642857Y-96502438D02*
X150738095Y-96597676D01*
X150738095Y-96597676D02*
X150785714Y-96692914D01*
X150785714Y-96692914D02*
X150833333Y-96883390D01*
X150833333Y-96883390D02*
X150833333Y-97026247D01*
X150833333Y-97026247D02*
X150785714Y-97216723D01*
X150785714Y-97216723D02*
X150738095Y-97311961D01*
X150738095Y-97311961D02*
X150642857Y-97407200D01*
X150642857Y-97407200D02*
X150500000Y-97454819D01*
X150500000Y-97454819D02*
X150261905Y-97454819D01*
X151166667Y-96454819D02*
X151785714Y-96454819D01*
X151785714Y-96454819D02*
X151452381Y-96835771D01*
X151452381Y-96835771D02*
X151595238Y-96835771D01*
X151595238Y-96835771D02*
X151690476Y-96883390D01*
X151690476Y-96883390D02*
X151738095Y-96931009D01*
X151738095Y-96931009D02*
X151785714Y-97026247D01*
X151785714Y-97026247D02*
X151785714Y-97264342D01*
X151785714Y-97264342D02*
X151738095Y-97359580D01*
X151738095Y-97359580D02*
X151690476Y-97407200D01*
X151690476Y-97407200D02*
X151595238Y-97454819D01*
X151595238Y-97454819D02*
X151309524Y-97454819D01*
X151309524Y-97454819D02*
X151214286Y-97407200D01*
X151214286Y-97407200D02*
X151166667Y-97359580D01*
X150991905Y-90454819D02*
X150991905Y-89454819D01*
X150991905Y-89454819D02*
X151230000Y-89454819D01*
X151230000Y-89454819D02*
X151372857Y-89502438D01*
X151372857Y-89502438D02*
X151468095Y-89597676D01*
X151468095Y-89597676D02*
X151515714Y-89692914D01*
X151515714Y-89692914D02*
X151563333Y-89883390D01*
X151563333Y-89883390D02*
X151563333Y-90026247D01*
X151563333Y-90026247D02*
X151515714Y-90216723D01*
X151515714Y-90216723D02*
X151468095Y-90311961D01*
X151468095Y-90311961D02*
X151372857Y-90407200D01*
X151372857Y-90407200D02*
X151230000Y-90454819D01*
X151230000Y-90454819D02*
X150991905Y-90454819D01*
X151944286Y-89550057D02*
X151991905Y-89502438D01*
X151991905Y-89502438D02*
X152087143Y-89454819D01*
X152087143Y-89454819D02*
X152325238Y-89454819D01*
X152325238Y-89454819D02*
X152420476Y-89502438D01*
X152420476Y-89502438D02*
X152468095Y-89550057D01*
X152468095Y-89550057D02*
X152515714Y-89645295D01*
X152515714Y-89645295D02*
X152515714Y-89740533D01*
X152515714Y-89740533D02*
X152468095Y-89883390D01*
X152468095Y-89883390D02*
X151896667Y-90454819D01*
X151896667Y-90454819D02*
X152515714Y-90454819D01*
X150991905Y-83454819D02*
X150991905Y-82454819D01*
X150991905Y-82454819D02*
X151230000Y-82454819D01*
X151230000Y-82454819D02*
X151372857Y-82502438D01*
X151372857Y-82502438D02*
X151468095Y-82597676D01*
X151468095Y-82597676D02*
X151515714Y-82692914D01*
X151515714Y-82692914D02*
X151563333Y-82883390D01*
X151563333Y-82883390D02*
X151563333Y-83026247D01*
X151563333Y-83026247D02*
X151515714Y-83216723D01*
X151515714Y-83216723D02*
X151468095Y-83311961D01*
X151468095Y-83311961D02*
X151372857Y-83407200D01*
X151372857Y-83407200D02*
X151230000Y-83454819D01*
X151230000Y-83454819D02*
X150991905Y-83454819D01*
X152515714Y-83454819D02*
X151944286Y-83454819D01*
X152230000Y-83454819D02*
X152230000Y-82454819D01*
X152230000Y-82454819D02*
X152134762Y-82597676D01*
X152134762Y-82597676D02*
X152039524Y-82692914D01*
X152039524Y-82692914D02*
X151944286Y-82740533D01*
%TO.C,R3*%
D11*
X147080000Y-110920000D02*
X147080000Y-107080000D01*
X148920000Y-110920000D02*
X148920000Y-107080000D01*
%TO.C,R2*%
X150080000Y-110920000D02*
X150080000Y-107080000D01*
X151920000Y-110920000D02*
X151920000Y-107080000D01*
%TO.C,R1*%
X153080000Y-110920000D02*
X153080000Y-107080000D01*
X154920000Y-110920000D02*
X154920000Y-107080000D01*
%TO.C,J1*%
X156080000Y-117345000D02*
X156080000Y-118615000D01*
X154810000Y-117345000D02*
X156080000Y-117345000D01*
X152700000Y-119692358D02*
X152700000Y-120005000D01*
X151840000Y-119692358D02*
X151840000Y-120005000D01*
X150160000Y-119692358D02*
X150160000Y-120005000D01*
X149300000Y-119692358D02*
X149300000Y-120005000D01*
X147620000Y-119692358D02*
X147620000Y-120005000D01*
X146760000Y-119692358D02*
X146760000Y-120005000D01*
X155240000Y-119775000D02*
X155240000Y-120005000D01*
X154380000Y-119775000D02*
X154380000Y-120005000D01*
X153540000Y-120005000D02*
X153540000Y-122765000D01*
X151000000Y-120005000D02*
X151000000Y-122765000D01*
X148460000Y-120005000D02*
X148460000Y-122765000D01*
X152700000Y-122765000D02*
X152700000Y-128765000D01*
X150160000Y-122765000D02*
X150160000Y-128765000D01*
X147620000Y-122765000D02*
X147620000Y-128765000D01*
X152700000Y-128765000D02*
X151840000Y-128765000D01*
X151840000Y-128765000D02*
X151840000Y-122765000D01*
X150160000Y-128765000D02*
X149300000Y-128765000D01*
X149300000Y-128765000D02*
X149300000Y-122765000D01*
X147620000Y-128765000D02*
X146760000Y-128765000D01*
X146760000Y-128765000D02*
X146760000Y-122765000D01*
X145810000Y-120005000D02*
X156190000Y-120005000D01*
X156190000Y-122765000D01*
X145810000Y-122765000D01*
X145810000Y-120005000D01*
X154380000Y-122765000D02*
X155240000Y-122765000D01*
X155240000Y-128765000D01*
X154380000Y-128765000D01*
X154380000Y-122765000D01*
G36*
X154380000Y-122765000D02*
G01*
X155240000Y-122765000D01*
X155240000Y-128765000D01*
X154380000Y-128765000D01*
X154380000Y-122765000D01*
G37*
%TO.C,D3*%
X153290000Y-101236000D02*
X153290000Y-101080000D01*
X153290000Y-98920000D02*
X153290000Y-98764000D01*
X153290000Y-101235516D02*
G75*
G02*
X150058563Y-101080000I-1560000J1235516D01*
G01*
X152770961Y-101080000D02*
G75*
G02*
X150689039Y-101080000I-1040961J1080000D01*
G01*
X150689039Y-98920000D02*
G75*
G02*
X152770961Y-98920000I1040961J-1080000D01*
G01*
X150058563Y-98920000D02*
G75*
G02*
X153290000Y-98764484I1671437J-1080000D01*
G01*
%TO.C,D2*%
X153290000Y-94236000D02*
X153290000Y-94080000D01*
X153290000Y-91920000D02*
X153290000Y-91764000D01*
X153290000Y-94235516D02*
G75*
G02*
X150058563Y-94080000I-1560000J1235516D01*
G01*
X152770961Y-94080000D02*
G75*
G02*
X150689039Y-94080000I-1040961J1080000D01*
G01*
X150689039Y-91920000D02*
G75*
G02*
X152770961Y-91920000I1040961J-1080000D01*
G01*
X150058563Y-91920000D02*
G75*
G02*
X153290000Y-91764484I1671437J-1080000D01*
G01*
%TO.C,D1*%
X153290000Y-87236000D02*
X153290000Y-87080000D01*
X153290000Y-84920000D02*
X153290000Y-84764000D01*
X153290000Y-87235516D02*
G75*
G02*
X150058563Y-87080000I-1560000J1235516D01*
G01*
X152770961Y-87080000D02*
G75*
G02*
X150689039Y-87080000I-1040961J1080000D01*
G01*
X150689039Y-84920000D02*
G75*
G02*
X152770961Y-84920000I1040961J-1080000D01*
G01*
X150058563Y-84920000D02*
G75*
G02*
X153290000Y-84764484I1671437J-1080000D01*
G01*
%TD*%
M02*
