M48
; DRILL file KiCad 10.0.5 date 2026-09-22T21:30:07
; FORMAT={-:-/ absolute / metric / decimal}
; #@! TF.CreationDate,2026-09-22T21:30:07+05:30
; #@! TF.GenerationSoftware,Kicad,Pcbnew,10.0.5
; #@! TF.FileFunction,MixedPlating,1,2
FMAT,2
METRIC
; #@! TA.AperFunction,Plated,PTH,ComponentDrill
T1C0.700
; #@! TA.AperFunction,Plated,PTH,ComponentDrill
T2C0.900
; #@! TA.AperFunction,Plated,PTH,ComponentDrill
T3C1.000
; #@! TA.AperFunction,Plated,PTH,ComponentDrill
T4C2.200
%
G90
G05
T1
X148.0Y-106.46
X148.0Y-111.54
X151.0Y-106.46
X151.0Y-111.54
X154.0Y-106.46
X154.0Y-111.54
T2
X150.46Y-86.0
X150.46Y-93.0
X150.46Y-100.0
X153.0Y-86.0
X153.0Y-93.0
X153.0Y-100.0
T3
X147.19Y-118.615
X149.73Y-118.615
X152.27Y-118.615
X154.81Y-118.615
T4
X142.0Y-109.0
X143.0Y-85.0
X161.0Y-85.0
X161.0Y-109.0
M30
