%TF.GenerationSoftware,KiCad,Pcbnew,10.0.5*%
%TF.CreationDate,2026-09-22T21:29:22+05:30*%
%TF.ProjectId,LED CIRCUIT,4c454420-4349-4524-9355-49542e6b6963,rev?*%
%TF.SameCoordinates,Original*%
%TF.FileFunction,Copper,L2,Bot*%
%TF.FilePolarity,Positive*%
%FSLAX46Y46*%
G04 Gerber Fmt 4.6, Leading zero omitted, Abs format (unit mm)*
G04 Created by KiCad (PCBNEW 10.0.5) date 2026-09-22 21:29:22*
%MOMM*%
%LPD*%
G01*
G04 APERTURE LIST*
%TA.AperFunction,ComponentPad*%
%ADD10C,1.400000*%
%TD*%
%TA.AperFunction,ComponentPad*%
%ADD11R,1.700000X1.700000*%
%TD*%
%TA.AperFunction,ComponentPad*%
%ADD12C,1.700000*%
%TD*%
%TA.AperFunction,ComponentPad*%
%ADD13C,3.800000*%
%TD*%
%TA.AperFunction,ComponentPad*%
%ADD14R,1.800000X1.800000*%
%TD*%
%TA.AperFunction,ComponentPad*%
%ADD15C,1.800000*%
%TD*%
%TA.AperFunction,Conductor*%
%ADD16C,0.200000*%
%TD*%
G04 APERTURE END LIST*
D10*
%TO.P,R3,1*%
%TO.N,Net-(J1-Pin_4)*%
X148000000Y-111540000D03*
%TO.P,R3,2*%
%TO.N,Net-(D3-A)*%
X148000000Y-106460000D03*
%TD*%
%TO.P,R2,1*%
%TO.N,Net-(J1-Pin_3)*%
X151000000Y-111540000D03*
%TO.P,R2,2*%
%TO.N,Net-(D2-A)*%
X151000000Y-106460000D03*
%TD*%
%TO.P,R1,1*%
%TO.N,Net-(J1-Pin_2)*%
X154000000Y-111540000D03*
%TO.P,R1,2*%
%TO.N,Net-(D1-A)*%
X154000000Y-106460000D03*
%TD*%
D11*
%TO.P,J1,1,Pin_1_1*%
%TO.N,Net-(D1-K)*%
X154810000Y-118615000D03*
D12*
%TO.P,J1,2,Pin_2_2*%
%TO.N,Net-(J1-Pin_2)*%
X152270000Y-118615000D03*
%TO.P,J1,3,Pin_3_3*%
%TO.N,Net-(J1-Pin_3)*%
X149730000Y-118615000D03*
%TO.P,J1,4,Pin_4_4*%
%TO.N,Net-(J1-Pin_4)*%
X147190000Y-118615000D03*
%TD*%
D13*
%TO.P,H4,1*%
%TO.N,N/C*%
X161000000Y-109000000D03*
%TD*%
%TO.P,H3,1*%
%TO.N,N/C*%
X161000000Y-85000000D03*
%TD*%
%TO.P,H2,1*%
%TO.N,N/C*%
X142000000Y-109000000D03*
%TD*%
%TO.P,H1,1*%
%TO.N,N/C*%
X143000000Y-85000000D03*
%TD*%
D14*
%TO.P,D3,1,K_1*%
%TO.N,Net-(D1-K)*%
X153000000Y-100000000D03*
D15*
%TO.P,D3,2,A_2*%
%TO.N,Net-(D3-A)*%
X150460000Y-100000000D03*
%TD*%
D14*
%TO.P,D2,1,K_1*%
%TO.N,Net-(D1-K)*%
X153000000Y-93000000D03*
D15*
%TO.P,D2,2,A_2*%
%TO.N,Net-(D2-A)*%
X150460000Y-93000000D03*
%TD*%
D14*
%TO.P,D1,1,K_1*%
%TO.N,Net-(D1-K)*%
X153000000Y-86000000D03*
D15*
%TO.P,D1,2,A_2*%
%TO.N,Net-(D1-A)*%
X150460000Y-86000000D03*
%TD*%
%TO.N,Net-(D1-K)*%
D16*
X153000000Y-86000000D02*
X153000000Y-100000000D01*
%TO.N,Net-(D3-A)*%
X148000000Y-102460000D02*
X150460000Y-100000000D01*
X148000000Y-106460000D02*
X148000000Y-102460000D01*
%TD*%
%TA.AperFunction,Conductor*%
%TO.N,Net-(D1-A)*%
G36*
X164442539Y-80520185D02*
G01*
X164488294Y-80572989D01*
X164499500Y-80624500D01*
X164499500Y-122375500D01*
X164479815Y-122442539D01*
X164427011Y-122488294D01*
X164375500Y-122499500D01*
X139624500Y-122499500D01*
X139557461Y-122479815D01*
X139511706Y-122427011D01*
X139500500Y-122375500D01*
X139500500Y-118508713D01*
X145839500Y-118508713D01*
X145839500Y-118721286D01*
X145872753Y-118931239D01*
X145938444Y-119133414D01*
X146034951Y-119322820D01*
X146159890Y-119494786D01*
X146310213Y-119645109D01*
X146482179Y-119770048D01*
X146482181Y-119770049D01*
X146482184Y-119770051D01*
X146671588Y-119866557D01*
X146873757Y-119932246D01*
X147083713Y-119965500D01*
X147083714Y-119965500D01*
X147296286Y-119965500D01*
X147296287Y-119965500D01*
X147506243Y-119932246D01*
X147708412Y-119866557D01*
X147897816Y-119770051D01*
X147984138Y-119707335D01*
X148069786Y-119645109D01*
X148069788Y-119645106D01*
X148069792Y-119645104D01*
X148220104Y-119494792D01*
X148220106Y-119494788D01*
X148220109Y-119494786D01*
X148345048Y-119322820D01*
X148345047Y-119322820D01*
X148345051Y-119322816D01*
X148349514Y-119314054D01*
X148397488Y-119263259D01*
X148465308Y-119246463D01*
X148531444Y-119268999D01*
X148570486Y-119314056D01*
X148574951Y-119322820D01*
X148699890Y-119494786D01*
X148850213Y-119645109D01*
X149022179Y-119770048D01*
X149022181Y-119770049D01*
X149022184Y-119770051D01*
X149211588Y-119866557D01*
X149413757Y-119932246D01*
X149623713Y-119965500D01*
X149623714Y-119965500D01*
X149836286Y-119965500D01*
X149836287Y-119965500D01*
X150046243Y-119932246D01*
X150248412Y-119866557D01*
X150437816Y-119770051D01*
X150524138Y-119707335D01*
X150609786Y-119645109D01*
X150609788Y-119645106D01*
X150609792Y-119645104D01*
X150760104Y-119494792D01*
X150760106Y-119494788D01*
X150760109Y-119494786D01*
X150885048Y-119322820D01*
X150885047Y-119322820D01*
X150885051Y-119322816D01*
X150889514Y-119314054D01*
X150937488Y-119263259D01*
X151005308Y-119246463D01*
X151071444Y-119268999D01*
X151110486Y-119314056D01*
X151114951Y-119322820D01*
X151239890Y-119494786D01*
X151390213Y-119645109D01*
X151562179Y-119770048D01*
X151562181Y-119770049D01*
X151562184Y-119770051D01*
X151751588Y-119866557D01*
X151953757Y-119932246D01*
X152163713Y-119965500D01*
X152163714Y-119965500D01*
X152376286Y-119965500D01*
X152376287Y-119965500D01*
X152586243Y-119932246D01*
X152788412Y-119866557D01*
X152977816Y-119770051D01*
X153149792Y-119645104D01*
X153263329Y-119531566D01*
X153324648Y-119498084D01*
X153394340Y-119503068D01*
X153450274Y-119544939D01*
X153467189Y-119575917D01*
X153516202Y-119707328D01*
X153516206Y-119707335D01*
X153602452Y-119822544D01*
X153602455Y-119822547D01*
X153717664Y-119908793D01*
X153717671Y-119908797D01*
X153852517Y-119959091D01*
X153852516Y-119959091D01*
X153859444Y-119959835D01*
X153912127Y-119965500D01*
X155707872Y-119965499D01*
X155767483Y-119959091D01*
X155902331Y-119908796D01*
X156017546Y-119822546D01*
X156103796Y-119707331D01*
X156154091Y-119572483D01*
X156160500Y-119512873D01*
X156160499Y-117717128D01*
X156154091Y-117657517D01*
X156152810Y-117654083D01*
X156103797Y-117522671D01*
X156103793Y-117522664D01*
X156017547Y-117407455D01*
X156017544Y-117407452D01*
X155902335Y-117321206D01*
X155902328Y-117321202D01*
X155767482Y-117270908D01*
X155767483Y-117270908D01*
X155707883Y-117264501D01*
X155707881Y-117264500D01*
X155707873Y-117264500D01*
X155707864Y-117264500D01*
X153912129Y-117264500D01*
X153912123Y-117264501D01*
X153852516Y-117270908D01*
X153717671Y-117321202D01*
X153717664Y-117321206D01*
X153602455Y-117407452D01*
X153602452Y-117407455D01*
X153516206Y-117522664D01*
X153516203Y-117522669D01*
X153467189Y-117654083D01*
X153425317Y-117710016D01*
X153359853Y-117734433D01*
X153291580Y-117719581D01*
X153263326Y-117698430D01*
X153149786Y-117584890D01*
X152977820Y-117459951D01*
X152788414Y-117363444D01*
X152788413Y-117363443D01*
X152788412Y-117363443D01*
X152586243Y-117297754D01*
X152586241Y-117297753D01*
X152586240Y-117297753D01*
X152424957Y-117272208D01*
X152376287Y-117264500D01*
X152163713Y-117264500D01*
X152115042Y-117272208D01*
X151953760Y-117297753D01*
X151751585Y-117363444D01*
X151562179Y-117459951D01*
X151390213Y-117584890D01*
X151239890Y-117735213D01*
X151114949Y-117907182D01*
X151110484Y-117915946D01*
X151062509Y-117966742D01*
X150994688Y-117983536D01*
X150928553Y-117960998D01*
X150889516Y-117915946D01*
X150885050Y-117907182D01*
X150760109Y-117735213D01*
X150609786Y-117584890D01*
X150437820Y-117459951D01*
X150248414Y-117363444D01*
X150248413Y-117363443D01*
X150248412Y-117363443D01*
X150046243Y-117297754D01*
X150046241Y-117297753D01*
X150046240Y-117297753D01*
X149884957Y-117272208D01*
X149836287Y-117264500D01*
X149623713Y-117264500D01*
X149575042Y-117272208D01*
X149413760Y-117297753D01*
X149211585Y-117363444D01*
X149022179Y-117459951D01*
X148850213Y-117584890D01*
X148699890Y-117735213D01*
X148574949Y-117907182D01*
X148570484Y-117915946D01*
X148522509Y-117966742D01*
X148454688Y-117983536D01*
X148388553Y-117960998D01*
X148349516Y-117915946D01*
X148345050Y-117907182D01*
X148220109Y-117735213D01*
X148069786Y-117584890D01*
X147897820Y-117459951D01*
X147708414Y-117363444D01*
X147708413Y-117363443D01*
X147708412Y-117363443D01*
X147506243Y-117297754D01*
X147506241Y-117297753D01*
X147506240Y-117297753D01*
X147344957Y-117272208D01*
X147296287Y-117264500D01*
X147083713Y-117264500D01*
X147035042Y-117272208D01*
X146873760Y-117297753D01*
X146671585Y-117363444D01*
X146482179Y-117459951D01*
X146310213Y-117584890D01*
X146159890Y-117735213D01*
X146034951Y-117907179D01*
X145938444Y-118096585D01*
X145872753Y-118298760D01*
X145839500Y-118508713D01*
X139500500Y-118508713D01*
X139500500Y-111445513D01*
X146799500Y-111445513D01*
X146799500Y-111634486D01*
X146829059Y-111821118D01*
X146887454Y-112000836D01*
X146973240Y-112169199D01*
X147084310Y-112322073D01*
X147217927Y-112455690D01*
X147370801Y-112566760D01*
X147450347Y-112607290D01*
X147539163Y-112652545D01*
X147539165Y-112652545D01*
X147539168Y-112652547D01*
X147635497Y-112683846D01*
X147718881Y-112710940D01*
X147905514Y-112740500D01*
X147905519Y-112740500D01*
X148094486Y-112740500D01*
X148281118Y-112710940D01*
X148460832Y-112652547D01*
X148629199Y-112566760D01*
X148782073Y-112455690D01*
X148915690Y-112322073D01*
X149026760Y-112169199D01*
X149112547Y-112000832D01*
X149170940Y-111821118D01*
X149200500Y-111634486D01*
X149200500Y-111445513D01*
X149799500Y-111445513D01*
X149799500Y-111634486D01*
X149829059Y-111821118D01*
X149887454Y-112000836D01*
X149973240Y-112169199D01*
X150084310Y-112322073D01*
X150217927Y-112455690D01*
X150370801Y-112566760D01*
X150450347Y-112607290D01*
X150539163Y-112652545D01*
X150539165Y-112652545D01*
X150539168Y-112652547D01*
X150635497Y-112683846D01*
X150718881Y-112710940D01*
X150905514Y-112740500D01*
X150905519Y-112740500D01*
X151094486Y-112740500D01*
X151281118Y-112710940D01*
X151460832Y-112652547D01*
X151629199Y-112566760D01*
X151782073Y-112455690D01*
X151915690Y-112322073D01*
X152026760Y-112169199D01*
X152112547Y-112000832D01*
X152170940Y-111821118D01*
X152200500Y-111634486D01*
X152200500Y-111445513D01*
X152799500Y-111445513D01*
X152799500Y-111634486D01*
X152829059Y-111821118D01*
X152887454Y-112000836D01*
X152973240Y-112169199D01*
X153084310Y-112322073D01*
X153217927Y-112455690D01*
X153370801Y-112566760D01*
X153450347Y-112607290D01*
X153539163Y-112652545D01*
X153539165Y-112652545D01*
X153539168Y-112652547D01*
X153635497Y-112683846D01*
X153718881Y-112710940D01*
X153905514Y-112740500D01*
X153905519Y-112740500D01*
X154094486Y-112740500D01*
X154281118Y-112710940D01*
X154460832Y-112652547D01*
X154629199Y-112566760D01*
X154782073Y-112455690D01*
X154915690Y-112322073D01*
X155026760Y-112169199D01*
X155112547Y-112000832D01*
X155170940Y-111821118D01*
X155200500Y-111634486D01*
X155200500Y-111445513D01*
X155170940Y-111258881D01*
X155120708Y-111104285D01*
X155112547Y-111079168D01*
X155112545Y-111079165D01*
X155112545Y-111079163D01*
X155026759Y-110910800D01*
X154915690Y-110757927D01*
X154782073Y-110624310D01*
X154629199Y-110513240D01*
X154460836Y-110427454D01*
X154281118Y-110369059D01*
X154094486Y-110339500D01*
X154094481Y-110339500D01*
X153905519Y-110339500D01*
X153905514Y-110339500D01*
X153718881Y-110369059D01*
X153539163Y-110427454D01*
X153370800Y-110513240D01*
X153283579Y-110576610D01*
X153217927Y-110624310D01*
X153217925Y-110624312D01*
X153217924Y-110624312D01*
X153084312Y-110757924D01*
X153084312Y-110757925D01*
X153084310Y-110757927D01*
X153059021Y-110792734D01*
X152973240Y-110910800D01*
X152887454Y-111079163D01*
X152829059Y-111258881D01*
X152799500Y-111445513D01*
X152200500Y-111445513D01*
X152170940Y-111258881D01*
X152120708Y-111104285D01*
X152112547Y-111079168D01*
X152112545Y-111079165D01*
X152112545Y-111079163D01*
X152026759Y-110910800D01*
X151915690Y-110757927D01*
X151782073Y-110624310D01*
X151629199Y-110513240D01*
X151460836Y-110427454D01*
X151281118Y-110369059D01*
X151094486Y-110339500D01*
X151094481Y-110339500D01*
X150905519Y-110339500D01*
X150905514Y-110339500D01*
X150718881Y-110369059D01*
X150539163Y-110427454D01*
X150370800Y-110513240D01*
X150283579Y-110576610D01*
X150217927Y-110624310D01*
X150217925Y-110624312D01*
X150217924Y-110624312D01*
X150084312Y-110757924D01*
X150084312Y-110757925D01*
X150084310Y-110757927D01*
X150059021Y-110792734D01*
X149973240Y-110910800D01*
X149887454Y-111079163D01*
X149829059Y-111258881D01*
X149799500Y-111445513D01*
X149200500Y-111445513D01*
X149170940Y-111258881D01*
X149120708Y-111104285D01*
X149112547Y-111079168D01*
X149112545Y-111079165D01*
X149112545Y-111079163D01*
X149026759Y-110910800D01*
X148915690Y-110757927D01*
X148782073Y-110624310D01*
X148629199Y-110513240D01*
X148460836Y-110427454D01*
X148281118Y-110369059D01*
X148094486Y-110339500D01*
X148094481Y-110339500D01*
X147905519Y-110339500D01*
X147905514Y-110339500D01*
X147718881Y-110369059D01*
X147539163Y-110427454D01*
X147370800Y-110513240D01*
X147283579Y-110576610D01*
X147217927Y-110624310D01*
X147217925Y-110624312D01*
X147217924Y-110624312D01*
X147084312Y-110757924D01*
X147084312Y-110757925D01*
X147084310Y-110757927D01*
X147059021Y-110792734D01*
X146973240Y-110910800D01*
X146887454Y-111079163D01*
X146829059Y-111258881D01*
X146799500Y-111445513D01*
X139500500Y-111445513D01*
X139500500Y-109854745D01*
X139520185Y-109787706D01*
X139572989Y-109741951D01*
X139642147Y-109732007D01*
X139705703Y-109761032D01*
X139741539Y-109813786D01*
X139778733Y-109920079D01*
X139778737Y-109920087D01*
X139778738Y-109920090D01*
X139895714Y-110162994D01*
X139895716Y-110162997D01*
X140039162Y-110391289D01*
X140207266Y-110602085D01*
X140397915Y-110792734D01*
X140608711Y-110960838D01*
X140837003Y-111104284D01*
X141079921Y-111221267D01*
X141187419Y-111258882D01*
X141334397Y-111310312D01*
X141334405Y-111310315D01*
X141334408Y-111310315D01*
X141334409Y-111310316D01*
X141597268Y-111370312D01*
X141865187Y-111400499D01*
X141865188Y-111400500D01*
X141865191Y-111400500D01*
X142134812Y-111400500D01*
X142134812Y-111400499D01*
X142402732Y-111370312D01*
X142665591Y-111310316D01*
X142920079Y-111221267D01*
X143162997Y-111104284D01*
X143391289Y-110960838D01*
X143602085Y-110792734D01*
X143792734Y-110602085D01*
X143960838Y-110391289D01*
X144104284Y-110162997D01*
X144221267Y-109920079D01*
X144310316Y-109665591D01*
X144370312Y-109402732D01*
X144400500Y-109134809D01*
X144400500Y-108865191D01*
X144400499Y-108865186D01*
X158599500Y-108865186D01*
X158599500Y-109134813D01*
X158629686Y-109402719D01*
X158629688Y-109402731D01*
X158689684Y-109665594D01*
X158689687Y-109665602D01*
X158778734Y-109920082D01*
X158895714Y-110162994D01*
X158895716Y-110162997D01*
X159039162Y-110391289D01*
X159207266Y-110602085D01*
X159397915Y-110792734D01*
X159608711Y-110960838D01*
X159837003Y-111104284D01*
X160079921Y-111221267D01*
X160187419Y-111258882D01*
X160334397Y-111310312D01*
X160334405Y-111310315D01*
X160334408Y-111310315D01*
X160334409Y-111310316D01*
X160597268Y-111370312D01*
X160865187Y-111400499D01*
X160865188Y-111400500D01*
X160865191Y-111400500D01*
X161134812Y-111400500D01*
X161134812Y-111400499D01*
X161402732Y-111370312D01*
X161665591Y-111310316D01*
X161920079Y-111221267D01*
X162162997Y-111104284D01*
X162391289Y-110960838D01*
X162602085Y-110792734D01*
X162792734Y-110602085D01*
X162960838Y-110391289D01*
X163104284Y-110162997D01*
X163221267Y-109920079D01*
X163310316Y-109665591D01*
X163370312Y-109402732D01*
X163400500Y-109134809D01*
X163400500Y-108865191D01*
X163370312Y-108597268D01*
X163310316Y-108334409D01*
X163221267Y-108079921D01*
X163104284Y-107837003D01*
X162960838Y-107608711D01*
X162792734Y-107397915D01*
X162602085Y-107207266D01*
X162391289Y-107039162D01*
X162162997Y-106895716D01*
X162162994Y-106895714D01*
X161920082Y-106778734D01*
X161665602Y-106689687D01*
X161665594Y-106689684D01*
X161468446Y-106644687D01*
X161402732Y-106629688D01*
X161402728Y-106629687D01*
X161402719Y-106629686D01*
X161134813Y-106599500D01*
X161134809Y-106599500D01*
X160865191Y-106599500D01*
X160865186Y-106599500D01*
X160597280Y-106629686D01*
X160597268Y-106629688D01*
X160334405Y-106689684D01*
X160334397Y-106689687D01*
X160079917Y-106778734D01*
X159837005Y-106895714D01*
X159608712Y-107039161D01*
X159397915Y-107207265D01*
X159207265Y-107397915D01*
X159039161Y-107608712D01*
X158895714Y-107837005D01*
X158778734Y-108079917D01*
X158689687Y-108334397D01*
X158689684Y-108334405D01*
X158629688Y-108597268D01*
X158629686Y-108597280D01*
X158599500Y-108865186D01*
X144400499Y-108865186D01*
X144370312Y-108597268D01*
X144310316Y-108334409D01*
X144221267Y-108079921D01*
X144104284Y-107837003D01*
X143960838Y-107608711D01*
X143792734Y-107397915D01*
X143602085Y-107207266D01*
X143391289Y-107039162D01*
X143162997Y-106895716D01*
X143162994Y-106895714D01*
X142920082Y-106778734D01*
X142665602Y-106689687D01*
X142665594Y-106689684D01*
X142468446Y-106644687D01*
X142402732Y-106629688D01*
X142402728Y-106629687D01*
X142402719Y-106629686D01*
X142134813Y-106599500D01*
X142134809Y-106599500D01*
X141865191Y-106599500D01*
X141865186Y-106599500D01*
X141597280Y-106629686D01*
X141597268Y-106629688D01*
X141334405Y-106689684D01*
X141334397Y-106689687D01*
X141079917Y-106778734D01*
X140837005Y-106895714D01*
X140608712Y-107039161D01*
X140397915Y-107207265D01*
X140207265Y-107397915D01*
X140039161Y-107608712D01*
X139895714Y-107837005D01*
X139778734Y-108079917D01*
X139741541Y-108186209D01*
X139700820Y-108242985D01*
X139635867Y-108268732D01*
X139567305Y-108255276D01*
X139516902Y-108206888D01*
X139500500Y-108145254D01*
X139500500Y-106365513D01*
X146799500Y-106365513D01*
X146799500Y-106554486D01*
X146829059Y-106741118D01*
X146887454Y-106920836D01*
X146947744Y-107039161D01*
X146973240Y-107089199D01*
X147084310Y-107242073D01*
X147217927Y-107375690D01*
X147370801Y-107486760D01*
X147450347Y-107527290D01*
X147539163Y-107572545D01*
X147539165Y-107572545D01*
X147539168Y-107572547D01*
X147635497Y-107603846D01*
X147718881Y-107630940D01*
X147905514Y-107660500D01*
X147905519Y-107660500D01*
X148094486Y-107660500D01*
X148281118Y-107630940D01*
X148282623Y-107630451D01*
X148460832Y-107572547D01*
X148629199Y-107486760D01*
X148782073Y-107375690D01*
X148915690Y-107242073D01*
X149026760Y-107089199D01*
X149112547Y-106920832D01*
X149170940Y-106741118D01*
X149193370Y-106599500D01*
X149200500Y-106554486D01*
X149200500Y-106365513D01*
X149799500Y-106365513D01*
X149799500Y-106554486D01*
X149829059Y-106741118D01*
X149887454Y-106920836D01*
X149947744Y-107039161D01*
X149973240Y-107089199D01*
X150084310Y-107242073D01*
X150217927Y-107375690D01*
X150370801Y-107486760D01*
X150450347Y-107527290D01*
X150539163Y-107572545D01*
X150539165Y-107572545D01*
X150539168Y-107572547D01*
X150635497Y-107603846D01*
X150718881Y-107630940D01*
X150905514Y-107660500D01*
X150905519Y-107660500D01*
X151094486Y-107660500D01*
X151281118Y-107630940D01*
X151282623Y-107630451D01*
X151460832Y-107572547D01*
X151629199Y-107486760D01*
X151655182Y-107467882D01*
X153345669Y-107467882D01*
X153345670Y-107467883D01*
X153371059Y-107486329D01*
X153539362Y-107572085D01*
X153718997Y-107630451D01*
X153905553Y-107660000D01*
X154094447Y-107660000D01*
X154281002Y-107630451D01*
X154460637Y-107572085D01*
X154628937Y-107486331D01*
X154654328Y-107467883D01*
X154654328Y-107467882D01*
X154000001Y-106813554D01*
X154000000Y-106813554D01*
X153345669Y-107467882D01*
X151655182Y-107467882D01*
X151782073Y-107375690D01*
X151915690Y-107242073D01*
X152026760Y-107089199D01*
X152112547Y-106920832D01*
X152170940Y-106741118D01*
X152193370Y-106599500D01*
X152200500Y-106554486D01*
X152200500Y-106365552D01*
X152800000Y-106365552D01*
X152800000Y-106554447D01*
X152829548Y-106741002D01*
X152887914Y-106920637D01*
X152973666Y-107088933D01*
X152992116Y-107114328D01*
X153646446Y-106460000D01*
X153646446Y-106459999D01*
X153600369Y-106413922D01*
X153650000Y-106413922D01*
X153650000Y-106506078D01*
X153673852Y-106595095D01*
X153719930Y-106674905D01*
X153785095Y-106740070D01*
X153864905Y-106786148D01*
X153953922Y-106810000D01*
X154046078Y-106810000D01*
X154135095Y-106786148D01*
X154214905Y-106740070D01*
X154280070Y-106674905D01*
X154326148Y-106595095D01*
X154350000Y-106506078D01*
X154350000Y-106459999D01*
X154353554Y-106459999D01*
X154353554Y-106460000D01*
X155007882Y-107114328D01*
X155007883Y-107114328D01*
X155026331Y-107088937D01*
X155112085Y-106920637D01*
X155170451Y-106741002D01*
X155200000Y-106554447D01*
X155200000Y-106365552D01*
X155170451Y-106178997D01*
X155112085Y-105999362D01*
X155026329Y-105831059D01*
X155007883Y-105805670D01*
X155007882Y-105805669D01*
X154353554Y-106459999D01*
X154350000Y-106459999D01*
X154350000Y-106413922D01*
X154326148Y-106324905D01*
X154280070Y-106245095D01*
X154214905Y-106179930D01*
X154135095Y-106133852D01*
X154046078Y-106110000D01*
X153953922Y-106110000D01*
X153864905Y-106133852D01*
X153785095Y-106179930D01*
X153719930Y-106245095D01*
X153673852Y-106324905D01*
X153650000Y-106413922D01*
X153600369Y-106413922D01*
X152992116Y-105805669D01*
X152992116Y-105805670D01*
X152973669Y-105831060D01*
X152887914Y-105999362D01*
X152829548Y-106178997D01*
X152800000Y-106365552D01*
X152200500Y-106365552D01*
X152200500Y-106365513D01*
X152170940Y-106178881D01*
X152112545Y-105999163D01*
X152067290Y-105910347D01*
X152026760Y-105830801D01*
X151915690Y-105677927D01*
X151782073Y-105544310D01*
X151655179Y-105452116D01*
X153345669Y-105452116D01*
X154000000Y-106106446D01*
X154000001Y-106106446D01*
X154654328Y-105452116D01*
X154628933Y-105433666D01*
X154460637Y-105347914D01*
X154281002Y-105289548D01*
X154094447Y-105260000D01*
X153905553Y-105260000D01*
X153718997Y-105289548D01*
X153539362Y-105347914D01*
X153371060Y-105433669D01*
X153345670Y-105452116D01*
X153345669Y-105452116D01*
X151655179Y-105452116D01*
X151629199Y-105433240D01*
X151600500Y-105418617D01*
X151460836Y-105347454D01*
X151281118Y-105289059D01*
X151094486Y-105259500D01*
X151094481Y-105259500D01*
X150905519Y-105259500D01*
X150905514Y-105259500D01*
X150718881Y-105289059D01*
X150539163Y-105347454D01*
X150370800Y-105433240D01*
X150283579Y-105496610D01*
X150217927Y-105544310D01*
X150217925Y-105544312D01*
X150217924Y-105544312D01*
X150084312Y-105677924D01*
X150084312Y-105677925D01*
X150084310Y-105677927D01*
X150036610Y-105743579D01*
X149973240Y-105830800D01*
X149887454Y-105999163D01*
X149829059Y-106178881D01*
X149799500Y-106365513D01*
X149200500Y-106365513D01*
X149170940Y-106178881D01*
X149112545Y-105999163D01*
X149067290Y-105910347D01*
X149026760Y-105830801D01*
X148915690Y-105677927D01*
X148782073Y-105544310D01*
X148737649Y-105512034D01*
X148651614Y-105449525D01*
X148608948Y-105394194D01*
X148600500Y-105349207D01*
X148600500Y-102760096D01*
X148620185Y-102693057D01*
X148636814Y-102672420D01*
X149935797Y-101373436D01*
X149997118Y-101339953D01*
X150061794Y-101343188D01*
X150081051Y-101349444D01*
X150132049Y-101366015D01*
X150349778Y-101400500D01*
X150349779Y-101400500D01*
X150570221Y-101400500D01*
X150570222Y-101400500D01*
X150787951Y-101366015D01*
X150997606Y-101297895D01*
X151194022Y-101197815D01*
X151372365Y-101068242D01*
X151422536Y-101018070D01*
X151483857Y-100984586D01*
X151553548Y-100989570D01*
X151609482Y-101031441D01*
X151626398Y-101062419D01*
X151656202Y-101142328D01*
X151656206Y-101142335D01*
X151742452Y-101257544D01*
X151742455Y-101257547D01*
X151857664Y-101343793D01*
X151857671Y-101343797D01*
X151992517Y-101394091D01*
X151992516Y-101394091D01*
X151999444Y-101394835D01*
X152052127Y-101400500D01*
X153947872Y-101400499D01*
X154007483Y-101394091D01*
X154142331Y-101343796D01*
X154257546Y-101257546D01*
X154343796Y-101142331D01*
X154394091Y-101007483D01*
X154400500Y-100947873D01*
X154400499Y-99052128D01*
X154394091Y-98992517D01*
X154373601Y-98937581D01*
X154343797Y-98857671D01*
X154343793Y-98857664D01*
X154257547Y-98742455D01*
X154257544Y-98742452D01*
X154142335Y-98656206D01*
X154142328Y-98656202D01*
X154007482Y-98605908D01*
X154007483Y-98605908D01*
X153947883Y-98599501D01*
X153947881Y-98599500D01*
X153947873Y-98599500D01*
X153947865Y-98599500D01*
X153724500Y-98599500D01*
X153657461Y-98579815D01*
X153611706Y-98527011D01*
X153600500Y-98475500D01*
X153600500Y-94524499D01*
X153620185Y-94457460D01*
X153672989Y-94411705D01*
X153724500Y-94400499D01*
X153947871Y-94400499D01*
X153947872Y-94400499D01*
X154007483Y-94394091D01*
X154142331Y-94343796D01*
X154257546Y-94257546D01*
X154343796Y-94142331D01*
X154394091Y-94007483D01*
X154400500Y-93947873D01*
X154400499Y-92052128D01*
X154394091Y-91992517D01*
X154373601Y-91937581D01*
X154343797Y-91857671D01*
X154343793Y-91857664D01*
X154257547Y-91742455D01*
X154257544Y-91742452D01*
X154142335Y-91656206D01*
X154142328Y-91656202D01*
X154007482Y-91605908D01*
X154007483Y-91605908D01*
X153947883Y-91599501D01*
X153947881Y-91599500D01*
X153947873Y-91599500D01*
X153947865Y-91599500D01*
X153724500Y-91599500D01*
X153657461Y-91579815D01*
X153611706Y-91527011D01*
X153600500Y-91475500D01*
X153600500Y-87524499D01*
X153620185Y-87457460D01*
X153672989Y-87411705D01*
X153724500Y-87400499D01*
X153947871Y-87400499D01*
X153947872Y-87400499D01*
X154007483Y-87394091D01*
X154142331Y-87343796D01*
X154257546Y-87257546D01*
X154343796Y-87142331D01*
X154394091Y-87007483D01*
X154400500Y-86947873D01*
X154400499Y-85052128D01*
X154394091Y-84992517D01*
X154346602Y-84865191D01*
X154346600Y-84865186D01*
X158599500Y-84865186D01*
X158599500Y-85134813D01*
X158629686Y-85402719D01*
X158629688Y-85402731D01*
X158689684Y-85665594D01*
X158689687Y-85665602D01*
X158778734Y-85920082D01*
X158895714Y-86162994D01*
X158895716Y-86162997D01*
X159039162Y-86391289D01*
X159207266Y-86602085D01*
X159397915Y-86792734D01*
X159608711Y-86960838D01*
X159837003Y-87104284D01*
X160079921Y-87221267D01*
X160183601Y-87257546D01*
X160334397Y-87310312D01*
X160334405Y-87310315D01*
X160334408Y-87310315D01*
X160334409Y-87310316D01*
X160597268Y-87370312D01*
X160865187Y-87400499D01*
X160865188Y-87400500D01*
X160865191Y-87400500D01*
X161134812Y-87400500D01*
X161134812Y-87400499D01*
X161402732Y-87370312D01*
X161665591Y-87310316D01*
X161920079Y-87221267D01*
X162162997Y-87104284D01*
X162391289Y-86960838D01*
X162602085Y-86792734D01*
X162792734Y-86602085D01*
X162960838Y-86391289D01*
X163104284Y-86162997D01*
X163221267Y-85920079D01*
X163310316Y-85665591D01*
X163370312Y-85402732D01*
X163400500Y-85134809D01*
X163400500Y-84865191D01*
X163370312Y-84597268D01*
X163310316Y-84334409D01*
X163221267Y-84079921D01*
X163104284Y-83837003D01*
X162960838Y-83608711D01*
X162792734Y-83397915D01*
X162602085Y-83207266D01*
X162391289Y-83039162D01*
X162162997Y-82895716D01*
X162162994Y-82895714D01*
X161920082Y-82778734D01*
X161665602Y-82689687D01*
X161665594Y-82689684D01*
X161468446Y-82644687D01*
X161402732Y-82629688D01*
X161402728Y-82629687D01*
X161402719Y-82629686D01*
X161134813Y-82599500D01*
X161134809Y-82599500D01*
X160865191Y-82599500D01*
X160865186Y-82599500D01*
X160597280Y-82629686D01*
X160597268Y-82629688D01*
X160334405Y-82689684D01*
X160334397Y-82689687D01*
X160079917Y-82778734D01*
X159837005Y-82895714D01*
X159608712Y-83039161D01*
X159397915Y-83207265D01*
X159207265Y-83397915D01*
X159039161Y-83608712D01*
X158895714Y-83837005D01*
X158778734Y-84079917D01*
X158689687Y-84334397D01*
X158689684Y-84334405D01*
X158629688Y-84597268D01*
X158629686Y-84597280D01*
X158599500Y-84865186D01*
X154346600Y-84865186D01*
X154343798Y-84857673D01*
X154343793Y-84857664D01*
X154257547Y-84742455D01*
X154257544Y-84742452D01*
X154142335Y-84656206D01*
X154142328Y-84656202D01*
X154007482Y-84605908D01*
X154007483Y-84605908D01*
X153947883Y-84599501D01*
X153947881Y-84599500D01*
X153947873Y-84599500D01*
X153947864Y-84599500D01*
X152052129Y-84599500D01*
X152052123Y-84599501D01*
X151992516Y-84605908D01*
X151857671Y-84656202D01*
X151857664Y-84656206D01*
X151742455Y-84742452D01*
X151742452Y-84742455D01*
X151656206Y-84857664D01*
X151656202Y-84857671D01*
X151605908Y-84992517D01*
X151599501Y-85052116D01*
X151599501Y-85052123D01*
X151599500Y-85052135D01*
X151599500Y-85162691D01*
X151579815Y-85229730D01*
X151563181Y-85250372D01*
X150902138Y-85911414D01*
X150879333Y-85826306D01*
X150820090Y-85723694D01*
X150736306Y-85639910D01*
X150633694Y-85580667D01*
X150548583Y-85557861D01*
X151257513Y-84848932D01*
X151193756Y-84802611D01*
X150997410Y-84702567D01*
X150787835Y-84634473D01*
X150570181Y-84600000D01*
X150349819Y-84600000D01*
X150132164Y-84634473D01*
X149922589Y-84702567D01*
X149726233Y-84802616D01*
X149662485Y-84848931D01*
X149662485Y-84848932D01*
X150371414Y-85557861D01*
X150286306Y-85580667D01*
X150183694Y-85639910D01*
X150099910Y-85723694D01*
X150040667Y-85826306D01*
X150017861Y-85911414D01*
X149308932Y-85202485D01*
X149308931Y-85202485D01*
X149262616Y-85266233D01*
X149162567Y-85462589D01*
X149094473Y-85672164D01*
X149060000Y-85889818D01*
X149060000Y-86110181D01*
X149094473Y-86327835D01*
X149162567Y-86537410D01*
X149262611Y-86733756D01*
X149308932Y-86797513D01*
X150017861Y-86088584D01*
X150040667Y-86173694D01*
X150099910Y-86276306D01*
X150183694Y-86360090D01*
X150286306Y-86419333D01*
X150371414Y-86442137D01*
X149662485Y-87151065D01*
X149662485Y-87151066D01*
X149726243Y-87197388D01*
X149922589Y-87297432D01*
X150132164Y-87365526D01*
X150349819Y-87400000D01*
X150570181Y-87400000D01*
X150787835Y-87365526D01*
X150997410Y-87297432D01*
X151193760Y-87197386D01*
X151257513Y-87151066D01*
X151257514Y-87151066D01*
X150548585Y-86442138D01*
X150633694Y-86419333D01*
X150736306Y-86360090D01*
X150820090Y-86276306D01*
X150879333Y-86173694D01*
X150902138Y-86088585D01*
X151563181Y-86749628D01*
X151596666Y-86810951D01*
X151599500Y-86837308D01*
X151599500Y-86947869D01*
X151599501Y-86947876D01*
X151605908Y-87007483D01*
X151656202Y-87142328D01*
X151656206Y-87142335D01*
X151742452Y-87257544D01*
X151742455Y-87257547D01*
X151857664Y-87343793D01*
X151857671Y-87343797D01*
X151902618Y-87360561D01*
X151992517Y-87394091D01*
X152052127Y-87400500D01*
X152275500Y-87400499D01*
X152342539Y-87420183D01*
X152388294Y-87472987D01*
X152399500Y-87524499D01*
X152399500Y-91475500D01*
X152379815Y-91542539D01*
X152327011Y-91588294D01*
X152275501Y-91599500D01*
X152052130Y-91599500D01*
X152052123Y-91599501D01*
X151992516Y-91605908D01*
X151857671Y-91656202D01*
X151857664Y-91656206D01*
X151742455Y-91742452D01*
X151742452Y-91742455D01*
X151656206Y-91857664D01*
X151656203Y-91857669D01*
X151626398Y-91937581D01*
X151584526Y-91993514D01*
X151519062Y-92017931D01*
X151450789Y-92003079D01*
X151422535Y-91981928D01*
X151372363Y-91931756D01*
X151372358Y-91931752D01*
X151194025Y-91802187D01*
X151194024Y-91802186D01*
X151194022Y-91802185D01*
X151076791Y-91742452D01*
X150997606Y-91702104D01*
X150997603Y-91702103D01*
X150787952Y-91633985D01*
X150679086Y-91616742D01*
X150570222Y-91599500D01*
X150349778Y-91599500D01*
X150277201Y-91610995D01*
X150132047Y-91633985D01*
X149922396Y-91702103D01*
X149922393Y-91702104D01*
X149725974Y-91802187D01*
X149547641Y-91931752D01*
X149547636Y-91931756D01*
X149391756Y-92087636D01*
X149391752Y-92087641D01*
X149262187Y-92265974D01*
X149162104Y-92462393D01*
X149162103Y-92462396D01*
X149093985Y-92672047D01*
X149059500Y-92889778D01*
X149059500Y-93110221D01*
X149093985Y-93327952D01*
X149162103Y-93537603D01*
X149162104Y-93537606D01*
X149262187Y-93734025D01*
X149391752Y-93912358D01*
X149391756Y-93912363D01*
X149547636Y-94068243D01*
X149547641Y-94068247D01*
X149649606Y-94142328D01*
X149725978Y-94197815D01*
X149854375Y-94263237D01*
X149922393Y-94297895D01*
X149922396Y-94297896D01*
X150027221Y-94331955D01*
X150132049Y-94366015D01*
X150349778Y-94400500D01*
X150349779Y-94400500D01*
X150570221Y-94400500D01*
X150570222Y-94400500D01*
X150787951Y-94366015D01*
X150997606Y-94297895D01*
X151194022Y-94197815D01*
X151372365Y-94068242D01*
X151422536Y-94018070D01*
X151483857Y-93984586D01*
X151553548Y-93989570D01*
X151609482Y-94031441D01*
X151626398Y-94062419D01*
X151656202Y-94142328D01*
X151656206Y-94142335D01*
X151742452Y-94257544D01*
X151742455Y-94257547D01*
X151857664Y-94343793D01*
X151857671Y-94343797D01*
X151902618Y-94360561D01*
X151992517Y-94394091D01*
X152052127Y-94400500D01*
X152275500Y-94400499D01*
X152342539Y-94420183D01*
X152388294Y-94472987D01*
X152399500Y-94524499D01*
X152399500Y-98475500D01*
X152379815Y-98542539D01*
X152327011Y-98588294D01*
X152275501Y-98599500D01*
X152052130Y-98599500D01*
X152052123Y-98599501D01*
X151992516Y-98605908D01*
X151857671Y-98656202D01*
X151857664Y-98656206D01*
X151742455Y-98742452D01*
X151742452Y-98742455D01*
X151656206Y-98857664D01*
X151656203Y-98857669D01*
X151626398Y-98937581D01*
X151584526Y-98993514D01*
X151519062Y-99017931D01*
X151450789Y-99003079D01*
X151422535Y-98981928D01*
X151372363Y-98931756D01*
X151372358Y-98931752D01*
X151194025Y-98802187D01*
X151194024Y-98802186D01*
X151194022Y-98802185D01*
X151076791Y-98742452D01*
X150997606Y-98702104D01*
X150997603Y-98702103D01*
X150787952Y-98633985D01*
X150679086Y-98616742D01*
X150570222Y-98599500D01*
X150349778Y-98599500D01*
X150277201Y-98610995D01*
X150132047Y-98633985D01*
X149922396Y-98702103D01*
X149922393Y-98702104D01*
X149725974Y-98802187D01*
X149547641Y-98931752D01*
X149547636Y-98931756D01*
X149391756Y-99087636D01*
X149391752Y-99087641D01*
X149262187Y-99265974D01*
X149162104Y-99462393D01*
X149162103Y-99462396D01*
X149093985Y-99672047D01*
X149059500Y-99889778D01*
X149059500Y-100110221D01*
X149093985Y-100327952D01*
X149116811Y-100398203D01*
X149118806Y-100468044D01*
X149086561Y-100524202D01*
X147631286Y-101979478D01*
X147519481Y-102091282D01*
X147519479Y-102091285D01*
X147469361Y-102178094D01*
X147469359Y-102178096D01*
X147440425Y-102228209D01*
X147440424Y-102228210D01*
X147440423Y-102228215D01*
X147399499Y-102380943D01*
X147399499Y-102380945D01*
X147399499Y-102549046D01*
X147399500Y-102549059D01*
X147399500Y-105349207D01*
X147379815Y-105416246D01*
X147348386Y-105449525D01*
X147217925Y-105544311D01*
X147084312Y-105677924D01*
X147084312Y-105677925D01*
X147084310Y-105677927D01*
X147036610Y-105743579D01*
X146973240Y-105830800D01*
X146887454Y-105999163D01*
X146829059Y-106178881D01*
X146799500Y-106365513D01*
X139500500Y-106365513D01*
X139500500Y-84865186D01*
X140599500Y-84865186D01*
X140599500Y-85134813D01*
X140629686Y-85402719D01*
X140629688Y-85402731D01*
X140689684Y-85665594D01*
X140689687Y-85665602D01*
X140778734Y-85920082D01*
X140895714Y-86162994D01*
X140895716Y-86162997D01*
X141039162Y-86391289D01*
X141207266Y-86602085D01*
X141397915Y-86792734D01*
X141608711Y-86960838D01*
X141837003Y-87104284D01*
X142079921Y-87221267D01*
X142183601Y-87257546D01*
X142334397Y-87310312D01*
X142334405Y-87310315D01*
X142334408Y-87310315D01*
X142334409Y-87310316D01*
X142597268Y-87370312D01*
X142865187Y-87400499D01*
X142865188Y-87400500D01*
X142865191Y-87400500D01*
X143134812Y-87400500D01*
X143134812Y-87400499D01*
X143402732Y-87370312D01*
X143665591Y-87310316D01*
X143920079Y-87221267D01*
X144162997Y-87104284D01*
X144391289Y-86960838D01*
X144602085Y-86792734D01*
X144792734Y-86602085D01*
X144960838Y-86391289D01*
X145104284Y-86162997D01*
X145221267Y-85920079D01*
X145310316Y-85665591D01*
X145370312Y-85402732D01*
X145400500Y-85134809D01*
X145400500Y-84865191D01*
X145370312Y-84597268D01*
X145310316Y-84334409D01*
X145221267Y-84079921D01*
X145104284Y-83837003D01*
X144960838Y-83608711D01*
X144792734Y-83397915D01*
X144602085Y-83207266D01*
X144391289Y-83039162D01*
X144162997Y-82895716D01*
X144162994Y-82895714D01*
X143920082Y-82778734D01*
X143665602Y-82689687D01*
X143665594Y-82689684D01*
X143468446Y-82644687D01*
X143402732Y-82629688D01*
X143402728Y-82629687D01*
X143402719Y-82629686D01*
X143134813Y-82599500D01*
X143134809Y-82599500D01*
X142865191Y-82599500D01*
X142865186Y-82599500D01*
X142597280Y-82629686D01*
X142597268Y-82629688D01*
X142334405Y-82689684D01*
X142334397Y-82689687D01*
X142079917Y-82778734D01*
X141837005Y-82895714D01*
X141608712Y-83039161D01*
X141397915Y-83207265D01*
X141207265Y-83397915D01*
X141039161Y-83608712D01*
X140895714Y-83837005D01*
X140778734Y-84079917D01*
X140689687Y-84334397D01*
X140689684Y-84334405D01*
X140629688Y-84597268D01*
X140629686Y-84597280D01*
X140599500Y-84865186D01*
X139500500Y-84865186D01*
X139500500Y-80624500D01*
X139520185Y-80557461D01*
X139572989Y-80511706D01*
X139624500Y-80500500D01*
X164375500Y-80500500D01*
X164442539Y-80520185D01*
G37*
%TD.AperFunction*%
%TD*%
M02*
